<svg width="1280" height="760" viewBox="0 0 1280 760" fill="none" xmlns="http://www.w3.org/2000/svg">
  <rect width="1280" height="760" fill="#0E1117"/>
  <rect x="24" y="24" width="1232" height="712" rx="28" fill="#111827" stroke="#233044" stroke-width="2"/>
  <text x="68" y="92" fill="#F8FAFC" font-family="Segoe UI, Arial, sans-serif" font-size="46" font-weight="800">Health</text>
  <text x="68" y="136" fill="#C6D4E5" font-family="Segoe UI, Arial, sans-serif" font-size="22">Saúde operacional do pipeline e cobertura dos dados</text>

  <rect x="68" y="182" width="250" height="108" rx="18" fill="#132033" stroke="#4EA1FF"/>
  <rect x="342" y="182" width="250" height="108" rx="18" fill="#103038" stroke="#26C6DA"/>
  <rect x="616" y="182" width="250" height="108" rx="18" fill="#201A3A" stroke="#7C9CF5"/>
  <rect x="890" y="182" width="320" height="108" rx="18" fill="#3B2A0D" stroke="#F2C14E"/>
  <text x="92" y="220" fill="#EAF2FF" font-family="Segoe UI, Arial, sans-serif" font-size="16" font-weight="700">Arquivos inventariados</text>
  <text x="92" y="260" fill="#FFFFFF" font-family="Segoe UI, Arial, sans-serif" font-size="34" font-weight="800">91</text>
  <text x="366" y="220" fill="#EAF2FF" font-family="Segoe UI, Arial, sans-serif" font-size="16" font-weight="700">Leituras com sucesso</text>
  <text x="366" y="260" fill="#FFFFFF" font-family="Segoe UI, Arial, sans-serif" font-size="34" font-weight="800">91</text>
  <text x="640" y="220" fill="#EAF2FF" font-family="Segoe UI, Arial, sans-serif" font-size="16" font-weight="700">Leituras com erro</text>
  <text x="640" y="260" fill="#FFFFFF" font-family="Segoe UI, Arial, sans-serif" font-size="34" font-weight="800">0</text>
  <text x="914" y="220" fill="#EAF2FF" font-family="Segoe UI, Arial, sans-serif" font-size="15" font-weight="700">Registros analíticos</text>
  <text x="914" y="260" fill="#FFFFFF" font-family="Segoe UI, Arial, sans-serif" font-size="34" font-weight="800">12.546+</text>

  <rect x="68" y="336" width="540" height="320" rx="20" fill="#0F1A29" stroke="#2A3B55"/>
  <rect x="640" y="336" width="570" height="320" rx="20" fill="#0F1A29" stroke="#2A3B55"/>
  <text x="94" y="374" fill="#F8FAFC" font-family="Segoe UI, Arial, sans-serif" font-size="24" font-weight="700">Status de leitura por export</text>
  <text x="666" y="374" fill="#F8FAFC" font-family="Segoe UI, Arial, sans-serif" font-size="24" font-weight="700">Cobertura por domínio</text>
  <rect x="102" y="418" width="202" height="28" rx="8" fill="#4EA1FF"/>
  <rect x="102" y="470" width="310" height="28" rx="8" fill="#26C6DA"/>
  <rect x="102" y="522" width="238" height="28" rx="8" fill="#7C9CF5"/>
  <text x="102" y="590" fill="#B7C7DE" font-family="Segoe UI, Arial, sans-serif" font-size="15">basic ok, complete ok e</text>
  <text x="102" y="614" fill="#B7C7DE" font-family="Segoe UI, Arial, sans-serif" font-size="15">inventário estabilizado.</text>
  <rect x="676" y="418" width="388" height="24" rx="8" fill="#4EA1FF"/>
  <rect x="676" y="466" width="240" height="24" rx="8" fill="#26C6DA"/>
  <rect x="676" y="514" width="170" height="24" rx="8" fill="#7C9CF5"/>
  <rect x="676" y="562" width="122" height="24" rx="8" fill="#F2C14E"/>
  <text x="676" y="620" fill="#B7C7DE" font-family="Segoe UI, Arial, sans-serif" font-size="15">Connections lidera o volume;</text>
  <text x="676" y="644" fill="#B7C7DE" font-family="Segoe UI, Arial, sans-serif" font-size="15">learning, jobs e engagement ampliam a cobertura.</text>
</svg>
