<svg width="1600" height="900" viewBox="0 0 1600 900" fill="none" xmlns="http://www.w3.org/2000/svg">
  <defs>
    <linearGradient id="lh-bg" x1="122" y1="82" x2="1486" y2="846" gradientUnits="userSpaceOnUse">
      <stop stop-color="#0A1020"/>
      <stop offset="1" stop-color="#100A18"/>
    </linearGradient>
    <linearGradient id="lh-accent" x1="910" y1="146" x2="1460" y2="676" gradientUnits="userSpaceOnUse">
      <stop stop-color="#A78BFA"/>
      <stop offset="0.52" stop-color="#22D3EE"/>
      <stop offset="1" stop-color="#FB7185"/>
    </linearGradient>
  </defs>

  <rect width="1600" height="900" rx="36" fill="url(#lh-bg)"/>
  <rect x="44" y="44" width="1512" height="812" rx="28" stroke="#2C2A49"/>

  <text x="124" y="164" fill="#A78BFA" font-size="34" font-weight="700" font-family="Segoe UI, Arial, sans-serif" letter-spacing="0.16em">
    AI RECOMMENDATION SYSTEM
  </text>
  <text x="124" y="286" fill="#F8FAFC" font-size="84" font-weight="800" font-family="Segoe UI, Arial, sans-serif">
    Lighthouse Dados AI
  </text>
  <text x="124" y="362" fill="#A5B4C8" font-size="35" font-weight="500" font-family="Segoe UI, Arial, sans-serif">
    Predictive signals and recommendation logic for smarter commercial decisions
  </text>

  <g>
    <rect x="124" y="432" width="166" height="52" rx="26" fill="#121629" stroke="#3A3560"/>
    <text x="169" y="466" fill="#E2E8F0" font-size="23" font-weight="700" font-family="Segoe UI, Arial, sans-serif">Python</text>
    <rect x="308" y="432" width="196" height="52" rx="26" fill="#121629" stroke="#3A3560"/>
    <text x="349" y="466" fill="#E2E8F0" font-size="23" font-weight="700" font-family="Segoe UI, Arial, sans-serif">Modeling</text>
    <rect x="522" y="432" width="224" height="52" rx="26" fill="#121629" stroke="#3A3560"/>
    <text x="564" y="466" fill="#E2E8F0" font-size="23" font-weight="700" font-family="Segoe UI, Arial, sans-serif">Recommendation</text>
  </g>

  <g>
    <rect x="850" y="132" width="694" height="552" rx="32" fill="#08111D" stroke="url(#lh-accent)" stroke-width="2"/>
    <circle cx="1196" cy="408" r="116" fill="#11182A" stroke="#A78BFA" stroke-width="2"/>
    <circle cx="1196" cy="408" r="74" fill="#101B2C" stroke="#22D3EE" stroke-width="2"/>
    <circle cx="1196" cy="408" r="30" fill="#FB7185"/>
    <text x="1164" y="416" fill="#F8FAFC" font-size="24" font-weight="800" font-family="Segoe UI, Arial, sans-serif">AI</text>

    <rect x="908" y="194" width="172" height="96" rx="18" fill="#12182A" stroke="#A78BFA"/>
    <text x="940" y="232" fill="#E9D5FF" font-size="21" font-weight="700" font-family="Segoe UI, Arial, sans-serif">Feature Set</text>
    <text x="938" y="262" fill="#B7BDD0" font-size="16" font-family="Segoe UI, Arial, sans-serif">customer and product</text>

    <rect x="1308" y="194" width="172" height="96" rx="18" fill="#12182A" stroke="#22D3EE"/>
    <text x="1340" y="232" fill="#CCFBF1" font-size="21" font-weight="700" font-family="Segoe UI, Arial, sans-serif">Scoring</text>
    <text x="1334" y="262" fill="#B7BDD0" font-size="16" font-family="Segoe UI, Arial, sans-serif">propensity signals</text>

    <rect x="908" y="530" width="172" height="96" rx="18" fill="#12182A" stroke="#FB7185"/>
    <text x="934" y="568" fill="#FFE4E6" font-size="21" font-weight="700" font-family="Segoe UI, Arial, sans-serif">Insights</text>
    <text x="936" y="598" fill="#B7BDD0" font-size="16" font-family="Segoe UI, Arial, sans-serif">business reading</text>

    <rect x="1308" y="530" width="172" height="96" rx="18" fill="#12182A" stroke="#38BDF8"/>
    <text x="1334" y="568" fill="#E0F2FE" font-size="21" font-weight="700" font-family="Segoe UI, Arial, sans-serif">Output</text>
    <text x="1330" y="598" fill="#B7BDD0" font-size="16" font-family="Segoe UI, Arial, sans-serif">recommend actions</text>

    <path d="M1080 242H1116" stroke="#A78BFA" stroke-width="5" stroke-linecap="round"/>
    <path d="M1276 242H1308" stroke="#22D3EE" stroke-width="5" stroke-linecap="round"/>
    <path d="M1080 578H1116" stroke="#FB7185" stroke-width="5" stroke-linecap="round"/>
    <path d="M1276 578H1308" stroke="#38BDF8" stroke-width="5" stroke-linecap="round"/>

    <path d="M1080 242C1136 242 1118 316 1162 338" stroke="#A78BFA" stroke-width="3" stroke-dasharray="8 10"/>
    <path d="M1308 242C1258 242 1270 316 1230 338" stroke="#22D3EE" stroke-width="3" stroke-dasharray="8 10"/>
    <path d="M1080 578C1136 578 1118 500 1162 478" stroke="#FB7185" stroke-width="3" stroke-dasharray="8 10"/>
    <path d="M1308 578C1258 578 1270 500 1230 478" stroke="#38BDF8" stroke-width="3" stroke-dasharray="8 10"/>
  </g>
</svg>
