<svg width="1280" height="720" viewBox="0 0 1280 720" fill="none" xmlns="http://www.w3.org/2000/svg">
  <rect width="1280" height="720" fill="#07111F"/>
  <rect x="18" y="18" width="1244" height="684" rx="28" fill="#0B1526" stroke="#17324A" stroke-width="2"/>

  <g opacity="0.2">
    <path d="M0 120H1280" stroke="#143149"/>
    <path d="M0 240H1280" stroke="#143149"/>
    <path d="M0 360H1280" stroke="#143149"/>
    <path d="M0 480H1280" stroke="#143149"/>
    <path d="M0 600H1280" stroke="#143149"/>
    <path d="M160 0V720" stroke="#143149"/>
    <path d="M320 0V720" stroke="#143149"/>
    <path d="M480 0V720" stroke="#143149"/>
    <path d="M640 0V720" stroke="#143149"/>
    <path d="M800 0V720" stroke="#143149"/>
    <path d="M960 0V720" stroke="#143149"/>
    <path d="M1120 0V720" stroke="#143149"/>
  </g>

  <text x="70" y="86" fill="#8AC7FF" font-family="Segoe UI, Arial, sans-serif" font-size="18" font-weight="700" letter-spacing="2">LINKEDIN CAREER INTELLIGENCE LAKEHOUSE</text>
  <text x="70" y="124" fill="#EAF4FF" font-family="Segoe UI, Arial, sans-serif" font-size="22" font-weight="700">FLUXO END-TO-END • PYTHON • DUCKDB • DBT • STREAMLIT</text>

  <rect x="74" y="184" width="168" height="210" rx="20" fill="#0D2234" stroke="#26C6DA" stroke-width="3"/>
  <text x="108" y="225" fill="#D9F8FF" font-family="Segoe UI, Arial, sans-serif" font-size="20" font-weight="700">Raw Export</text>
  <text x="105" y="258" fill="#A9C2DD" font-family="Segoe UI, Arial, sans-serif" font-size="15">LinkedIn CSV</text>
  <text x="105" y="282" fill="#A9C2DD" font-family="Segoe UI, Arial, sans-serif" font-size="15">basic + complete</text>
  <rect x="114" y="314" width="88" height="52" rx="12" fill="#12364C" stroke="#26C6DA"/>
  <text x="126" y="345" fill="#EAF4FF" font-family="Segoe UI, Arial, sans-serif" font-size="18" font-weight="700">CSV</text>

  <rect x="308" y="184" width="168" height="210" rx="20" fill="#11243B" stroke="#4EA1FF" stroke-width="3"/>
  <text x="332" y="225" fill="#EAF4FF" font-family="Segoe UI, Arial, sans-serif" font-size="20" font-weight="700">Python ETL</text>
  <text x="332" y="258" fill="#A9C2DD" font-family="Segoe UI, Arial, sans-serif" font-size="15">parsing, limpeza</text>
  <text x="332" y="282" fill="#A9C2DD" font-family="Segoe UI, Arial, sans-serif" font-size="15">bronze write</text>
  <circle cx="392" cy="332" r="38" fill="#17324A" stroke="#4EA1FF"/>
  <text x="370" y="339" fill="#EAF4FF" font-family="Segoe UI, Arial, sans-serif" font-size="20" font-weight="700">Py</text>

  <rect x="542" y="184" width="168" height="210" rx="20" fill="#1A1E3B" stroke="#A66BFF" stroke-width="3"/>
  <text x="592" y="225" fill="#F3E9FF" font-family="Segoe UI, Arial, sans-serif" font-size="20" font-weight="700">DuckDB</text>
  <text x="570" y="258" fill="#BEB9E8" font-family="Segoe UI, Arial, sans-serif" font-size="15">warehouse local</text>
  <text x="580" y="282" fill="#BEB9E8" font-family="Segoe UI, Arial, sans-serif" font-size="15">schema bronze</text>
  <ellipse cx="626" cy="334" rx="42" ry="34" fill="#251F4A" stroke="#A66BFF"/>
  <path d="M590 323C590 312 606 304 626 304C646 304 662 312 662 323V347C662 358 646 366 626 366C606 366 590 358 590 347V323Z" stroke="#D9C5FF" stroke-width="2"/>
  <path d="M590 335C590 346 606 354 626 354C646 354 662 346 662 335" stroke="#D9C5FF" stroke-width="2"/>

  <rect x="776" y="184" width="186" height="210" rx="20" fill="#12253A" stroke="#52D6FF" stroke-width="3"/>
  <text x="824" y="225" fill="#EAF4FF" font-family="Segoe UI, Arial, sans-serif" font-size="20" font-weight="700">dbt Layer</text>
  <text x="815" y="258" fill="#A9C2DD" font-family="Segoe UI, Arial, sans-serif" font-size="15">staging + marts</text>
  <text x="825" y="282" fill="#A9C2DD" font-family="Segoe UI, Arial, sans-serif" font-size="15">analytics SQL</text>
  <rect x="820" y="310" width="98" height="64" rx="14" fill="#17324A" stroke="#52D6FF"/>
  <text x="845" y="338" fill="#EAF4FF" font-family="Segoe UI, Arial, sans-serif" font-size="15" font-weight="700">stg_*</text>
  <text x="840" y="360" fill="#EAF4FF" font-family="Segoe UI, Arial, sans-serif" font-size="15" font-weight="700">mart_*</text>

  <rect x="1028" y="184" width="180" height="210" rx="20" fill="#221A0F" stroke="#FFD84D" stroke-width="3"/>
  <text x="1062" y="225" fill="#FFF3CA" font-family="Segoe UI, Arial, sans-serif" font-size="20" font-weight="700">Streamlit</text>
  <text x="1062" y="258" fill="#D8CCA1" font-family="Segoe UI, Arial, sans-serif" font-size="15">KPI app</text>
  <text x="1055" y="282" fill="#D8CCA1" font-family="Segoe UI, Arial, sans-serif" font-size="15">storytelling</text>
  <rect x="1062" y="310" width="112" height="64" rx="14" fill="#3D2B12" stroke="#FFD84D"/>
  <path d="M1086 356V330" stroke="#FFF3CA" stroke-width="4" stroke-linecap="round"/>
  <path d="M1118 356V320" stroke="#FFF3CA" stroke-width="4" stroke-linecap="round"/>
  <path d="M1150 356V338" stroke="#FFF3CA" stroke-width="4" stroke-linecap="round"/>

  <path d="M242 289H308" stroke="#26C6DA" stroke-width="6" stroke-linecap="round"/>
  <path d="M476 289H542" stroke="#4EA1FF" stroke-width="6" stroke-linecap="round"/>
  <path d="M710 289H776" stroke="#A66BFF" stroke-width="6" stroke-linecap="round"/>
  <path d="M962 289H1028" stroke="#52D6FF" stroke-width="6" stroke-linecap="round"/>

  <rect x="116" y="470" width="1048" height="156" rx="22" fill="#0D182A" stroke="#22405A" stroke-width="2"/>
  <text x="150" y="516" fill="#EAF4FF" font-family="Segoe UI, Arial, sans-serif" font-size="26" font-weight="700">Analytical Coverage</text>
  <text x="150" y="556" fill="#A9C2DD" font-family="Segoe UI, Arial, sans-serif" font-size="18">Profile • Connections • Career • Education • Certifications • Languages • Skills • Learning</text>
  <text x="150" y="588" fill="#A9C2DD" font-family="Segoe UI, Arial, sans-serif" font-size="18">Recommendations • Engagement • Jobs • Pipeline Health • File Inventory</text>

  <rect x="852" y="494" width="118" height="92" rx="16" fill="#12364C" stroke="#26C6DA"/>
  <rect x="986" y="494" width="118" height="92" rx="16" fill="#251F4A" stroke="#A66BFF"/>
  <text x="879" y="530" fill="#EAF4FF" font-family="Segoe UI, Arial, sans-serif" font-size="20" font-weight="800">91</text>
  <text x="870" y="556" fill="#BFD5EA" font-family="Segoe UI, Arial, sans-serif" font-size="13">files read</text>
  <text x="1004" y="530" fill="#EAF4FF" font-family="Segoe UI, Arial, sans-serif" font-size="20" font-weight="800">9.697</text>
  <text x="1010" y="556" fill="#BFD5EA" font-family="Segoe UI, Arial, sans-serif" font-size="13">connections</text>
</svg>
